<mxfile host="Electron" modified="2024-05-23T05:49:35.055Z" agent="Mozilla/5.0 (Windows NT 10.0; Win64; x64) AppleWebKit/537.36 (KHTML, like Gecko) draw.io/23.1.5 Chrome/120.0.6099.109 Electron/28.1.0 Safari/537.36" etag="A3429usNf4bWKMDMcPTs" version="23.1.5" type="device">
  <diagram name="Strona-1" id="I7DZua1e1ifhqDZcmrwz">
    <mxGraphModel dx="1147" dy="766" grid="1" gridSize="10" guides="1" tooltips="1" connect="1" arrows="1" fold="1" page="1" pageScale="1" pageWidth="1000" pageHeight="450" math="0" shadow="0">
      <root>
        <mxCell id="0" />
        <mxCell id="1" parent="0" />
        <mxCell id="tonet2kMceCvSD0oCQCj-22" value="Data (Avalon Stream)" style="edgeStyle=orthogonalEdgeStyle;rounded=0;orthogonalLoop=1;jettySize=auto;html=1;entryX=-0.033;entryY=0.534;entryDx=0;entryDy=0;shape=flexArrow;entryPerimeter=0;" parent="1" target="tonet2kMceCvSD0oCQCj-4" edge="1">
          <mxGeometry x="-0.0576" y="-9" relative="1" as="geometry">
            <mxPoint as="offset" />
            <Array as="points" />
            <mxPoint x="283.8699999999999" y="291.4033333333332" as="sourcePoint" />
            <mxPoint x="593.9999999999999" y="291.38249999999994" as="targetPoint" />
          </mxGeometry>
        </mxCell>
        <mxCell id="tonet2kMceCvSD0oCQCj-2" value="SpeedSPI" style="rounded=0;whiteSpace=wrap;html=1;" parent="1" vertex="1">
          <mxGeometry x="134.93" y="220" width="145.07" height="110" as="geometry" />
        </mxCell>
        <mxCell id="tonet2kMceCvSD0oCQCj-3" value="" style="rounded=0;whiteSpace=wrap;html=1;" parent="1" vertex="1">
          <mxGeometry x="100" y="166.75" width="850" height="20" as="geometry" />
        </mxCell>
        <mxCell id="tonet2kMceCvSD0oCQCj-4" value="&lt;br&gt;&lt;br&gt;&lt;br&gt;&lt;br&gt;&lt;br&gt;&lt;br&gt;&lt;br&gt;&lt;br&gt;AI Compare" style="rounded=0;whiteSpace=wrap;html=1;" parent="1" vertex="1">
          <mxGeometry x="648.69" y="222.5" width="98" height="130.75" as="geometry" />
        </mxCell>
        <mxCell id="tonet2kMceCvSD0oCQCj-5" value="&lt;br&gt;&lt;br&gt;Microphone" style="rounded=0;whiteSpace=wrap;html=1;" parent="1" vertex="1">
          <mxGeometry x="464" y="46.5" width="110" height="93.5" as="geometry" />
        </mxCell>
        <mxCell id="35LEq4aCd4Z8V4UaqVQG-8" value="irq" style="edgeStyle=orthogonalEdgeStyle;rounded=0;orthogonalLoop=1;jettySize=auto;html=1;exitX=0;exitY=0.25;exitDx=0;exitDy=0;entryX=0.25;entryY=0;entryDx=0;entryDy=0;" parent="1" source="tonet2kMceCvSD0oCQCj-6" target="tonet2kMceCvSD0oCQCj-1" edge="1">
          <mxGeometry x="-0.362" y="-12" relative="1" as="geometry">
            <mxPoint as="offset" />
          </mxGeometry>
        </mxCell>
        <mxCell id="tonet2kMceCvSD0oCQCj-6" value="Signal Processor&lt;div&gt;&lt;br&gt;&lt;/div&gt;&lt;div&gt;&lt;br&gt;&lt;/div&gt;&lt;div&gt;&lt;br&gt;&lt;/div&gt;&lt;div&gt;&lt;br&gt;&lt;/div&gt;&lt;div&gt;&lt;br&gt;&lt;/div&gt;&lt;div&gt;&lt;br&gt;&lt;/div&gt;&lt;div&gt;&lt;br&gt;&lt;/div&gt;" style="rounded=0;whiteSpace=wrap;html=1;" parent="1" vertex="1">
          <mxGeometry x="122.5" y="20.14" width="165" height="119.86" as="geometry" />
        </mxCell>
        <mxCell id="tonet2kMceCvSD0oCQCj-8" value="DMA" style="rounded=0;whiteSpace=wrap;html=1;" parent="1" vertex="1">
          <mxGeometry x="230" y="120" width="50" height="20" as="geometry" />
        </mxCell>
        <mxCell id="tonet2kMceCvSD0oCQCj-10" value="AI RAM" style="rounded=0;whiteSpace=wrap;html=1;" parent="1" vertex="1">
          <mxGeometry x="440.13" y="221.5" width="90" height="57.75" as="geometry" />
        </mxCell>
        <mxCell id="tonet2kMceCvSD0oCQCj-11" value="&lt;br&gt;&lt;br&gt;AI DMA&amp;nbsp; &amp;nbsp; &amp;nbsp;" style="rounded=0;whiteSpace=wrap;html=1;" parent="1" vertex="1">
          <mxGeometry x="300.13" y="222.5" width="112" height="57.75" as="geometry" />
        </mxCell>
        <mxCell id="35LEq4aCd4Z8V4UaqVQG-35" style="edgeStyle=orthogonalEdgeStyle;rounded=0;orthogonalLoop=1;jettySize=auto;html=1;exitX=0.25;exitY=0;exitDx=0;exitDy=0;entryX=0.5;entryY=1;entryDx=0;entryDy=0;" parent="1" source="tonet2kMceCvSD0oCQCj-12" target="35LEq4aCd4Z8V4UaqVQG-23" edge="1">
          <mxGeometry relative="1" as="geometry">
            <Array as="points">
              <mxPoint x="139" y="100" />
              <mxPoint x="139" y="68" />
            </Array>
          </mxGeometry>
        </mxCell>
        <mxCell id="tonet2kMceCvSD0oCQCj-12" value="DMA" style="rounded=0;whiteSpace=wrap;html=1;" parent="1" vertex="1">
          <mxGeometry x="127" y="119.86" width="50" height="20" as="geometry" />
        </mxCell>
        <mxCell id="tonet2kMceCvSD0oCQCj-19" style="edgeStyle=orthogonalEdgeStyle;rounded=0;orthogonalLoop=1;jettySize=auto;html=1;exitX=0.5;exitY=1;exitDx=0;exitDy=0;entryX=0;entryY=0.75;entryDx=0;entryDy=0;shape=flexArrow;" parent="1" source="tonet2kMceCvSD0oCQCj-7" target="tonet2kMceCvSD0oCQCj-10" edge="1">
          <mxGeometry relative="1" as="geometry" />
        </mxCell>
        <mxCell id="tonet2kMceCvSD0oCQCj-7" value="DMA" style="rounded=0;whiteSpace=wrap;html=1;" parent="1" vertex="1">
          <mxGeometry x="360.13" y="222.5" width="42" height="20" as="geometry" />
        </mxCell>
        <mxCell id="tonet2kMceCvSD0oCQCj-13" value="regs" style="rounded=0;whiteSpace=wrap;html=1;" parent="1" vertex="1">
          <mxGeometry x="310.13" y="222.5" width="50" height="20" as="geometry" />
        </mxCell>
        <mxCell id="tonet2kMceCvSD0oCQCj-15" value="regs" style="rounded=0;whiteSpace=wrap;html=1;" parent="1" vertex="1">
          <mxGeometry x="499" y="120" width="50" height="20" as="geometry" />
        </mxCell>
        <mxCell id="tonet2kMceCvSD0oCQCj-16" value="regs" style="rounded=0;whiteSpace=wrap;html=1;" parent="1" vertex="1">
          <mxGeometry x="692.69" y="220.75" width="50" height="20.75" as="geometry" />
        </mxCell>
        <mxCell id="tonet2kMceCvSD0oCQCj-17" value="regs" style="rounded=0;whiteSpace=wrap;html=1;" parent="1" vertex="1">
          <mxGeometry x="180" y="120" width="50" height="20" as="geometry" />
        </mxCell>
        <mxCell id="JLmv91pbufhecPj-X8_o-48" style="edgeStyle=orthogonalEdgeStyle;rounded=0;orthogonalLoop=1;jettySize=auto;html=1;exitX=0.017;exitY=0.119;exitDx=0;exitDy=0;entryX=1;entryY=0.25;entryDx=0;entryDy=0;exitPerimeter=0;shape=flexArrow;" parent="1" source="tonet2kMceCvSD0oCQCj-20" target="tonet2kMceCvSD0oCQCj-10" edge="1">
          <mxGeometry relative="1" as="geometry" />
        </mxCell>
        <mxCell id="JLmv91pbufhecPj-X8_o-49" value="Addr (Avalon Stream)" style="edgeLabel;html=1;align=center;verticalAlign=middle;resizable=0;points=[];" parent="JLmv91pbufhecPj-X8_o-48" vertex="1" connectable="0">
          <mxGeometry x="0.1623" y="-9" relative="1" as="geometry">
            <mxPoint x="14" y="-15" as="offset" />
          </mxGeometry>
        </mxCell>
        <mxCell id="tonet2kMceCvSD0oCQCj-20" value="IDMA" style="rounded=0;whiteSpace=wrap;html=1;" parent="1" vertex="1">
          <mxGeometry x="648.69" y="230.75" width="36" height="49.5" as="geometry" />
        </mxCell>
        <mxCell id="tonet2kMceCvSD0oCQCj-25" value="" style="endArrow=classic;html=1;rounded=0;entryX=0.5;entryY=0;entryDx=0;entryDy=0;exitX=0.243;exitY=0.939;exitDx=0;exitDy=0;exitPerimeter=0;strokeWidth=5;" parent="1" edge="1">
          <mxGeometry width="50" height="50" relative="1" as="geometry">
            <mxPoint x="334.74000000000007" y="189.99999999999997" as="sourcePoint" />
            <mxPoint x="335.53000000000003" y="223.72" as="targetPoint" />
          </mxGeometry>
        </mxCell>
        <mxCell id="tonet2kMceCvSD0oCQCj-27" value="" style="endArrow=classic;html=1;rounded=0;entryX=0.5;entryY=0;entryDx=0;entryDy=0;shape=flexArrow;endWidth=14.285714285714285;endSize=6.266666666666667;" parent="1" target="tonet2kMceCvSD0oCQCj-7" edge="1">
          <mxGeometry width="50" height="50" relative="1" as="geometry">
            <mxPoint x="380.13" y="193.25" as="sourcePoint" />
            <mxPoint x="430.13" y="203.25" as="targetPoint" />
          </mxGeometry>
        </mxCell>
        <mxCell id="tonet2kMceCvSD0oCQCj-28" value="" style="endArrow=classic;html=1;rounded=0;entryX=0.5;entryY=1;entryDx=0;entryDy=0;shape=flexArrow;exitX=0.155;exitY=0.007;exitDx=0;exitDy=0;exitPerimeter=0;" parent="1" target="tonet2kMceCvSD0oCQCj-12" edge="1">
          <mxGeometry width="50" height="50" relative="1" as="geometry">
            <mxPoint x="152.0999999999999" y="166.75" as="sourcePoint" />
            <mxPoint x="267" y="238.11" as="targetPoint" />
          </mxGeometry>
        </mxCell>
        <mxCell id="tonet2kMceCvSD0oCQCj-29" style="edgeStyle=orthogonalEdgeStyle;rounded=0;orthogonalLoop=1;jettySize=auto;html=1;entryX=0.309;entryY=-0.032;entryDx=0;entryDy=0;entryPerimeter=0;shape=flexArrow;" parent="1" edge="1">
          <mxGeometry relative="1" as="geometry">
            <mxPoint x="254.95" y="140.64000000000001" as="sourcePoint" />
            <mxPoint x="254.72999999999996" y="166.75000000000003" as="targetPoint" />
          </mxGeometry>
        </mxCell>
        <mxCell id="tonet2kMceCvSD0oCQCj-30" value="" style="endArrow=classic;html=1;rounded=0;entryX=0.5;entryY=1;entryDx=0;entryDy=0;strokeWidth=5;" parent="1" target="tonet2kMceCvSD0oCQCj-17" edge="1">
          <mxGeometry width="50" height="50" relative="1" as="geometry">
            <mxPoint x="205" y="160.14" as="sourcePoint" />
            <mxPoint x="287" y="170" as="targetPoint" />
          </mxGeometry>
        </mxCell>
        <mxCell id="35LEq4aCd4Z8V4UaqVQG-1" value="regs" style="rounded=0;whiteSpace=wrap;html=1;" parent="1" vertex="1">
          <mxGeometry x="455.13" y="221.5" width="50" height="20" as="geometry" />
        </mxCell>
        <mxCell id="35LEq4aCd4Z8V4UaqVQG-2" value="" style="endArrow=classic;html=1;rounded=0;entryX=0.5;entryY=0;entryDx=0;entryDy=0;exitX=0.155;exitY=0.929;exitDx=0;exitDy=0;exitPerimeter=0;strokeWidth=5;" parent="1" edge="1">
          <mxGeometry width="50" height="50" relative="1" as="geometry">
            <mxPoint x="479.93" y="190" as="sourcePoint" />
            <mxPoint x="479.93" y="224" as="targetPoint" />
          </mxGeometry>
        </mxCell>
        <mxCell id="35LEq4aCd4Z8V4UaqVQG-3" value="" style="endArrow=none;html=1;rounded=0;" parent="1" edge="1">
          <mxGeometry width="50" height="50" relative="1" as="geometry">
            <mxPoint x="308" y="280" as="sourcePoint" />
            <mxPoint x="308.13" y="402.5" as="targetPoint" />
          </mxGeometry>
        </mxCell>
        <mxCell id="35LEq4aCd4Z8V4UaqVQG-5" value="" style="endArrow=none;html=1;rounded=0;exitX=0.75;exitY=1;exitDx=0;exitDy=0;" parent="1" source="tonet2kMceCvSD0oCQCj-4" edge="1">
          <mxGeometry width="50" height="50" relative="1" as="geometry">
            <mxPoint x="548.69" y="282.5" as="sourcePoint" />
            <mxPoint x="720" y="400" as="targetPoint" />
          </mxGeometry>
        </mxCell>
        <mxCell id="35LEq4aCd4Z8V4UaqVQG-6" value="irq" style="endArrow=none;html=1;rounded=0;" parent="1" edge="1">
          <mxGeometry x="-0.2157" y="-20" width="50" height="50" relative="1" as="geometry">
            <mxPoint x="700" y="400" as="sourcePoint" />
            <mxPoint x="40" y="400" as="targetPoint" />
            <mxPoint as="offset" />
          </mxGeometry>
        </mxCell>
        <mxCell id="35LEq4aCd4Z8V4UaqVQG-9" value="" style="endArrow=classic;html=1;rounded=0;entryX=0.148;entryY=0.985;entryDx=0;entryDy=0;entryPerimeter=0;" parent="1" target="tonet2kMceCvSD0oCQCj-1" edge="1">
          <mxGeometry width="50" height="50" relative="1" as="geometry">
            <mxPoint x="43" y="400" as="sourcePoint" />
            <mxPoint x="450" y="240" as="targetPoint" />
          </mxGeometry>
        </mxCell>
        <mxCell id="35LEq4aCd4Z8V4UaqVQG-10" value="" style="endArrow=classic;html=1;rounded=0;entryX=0.5;entryY=1;entryDx=0;entryDy=0;exitX=0.46;exitY=-0.019;exitDx=0;exitDy=0;exitPerimeter=0;strokeWidth=5;" parent="1" edge="1">
          <mxGeometry width="50" height="50" relative="1" as="geometry">
            <mxPoint x="518.89" y="166.75" as="sourcePoint" />
            <mxPoint x="518.89" y="140.75" as="targetPoint" />
          </mxGeometry>
        </mxCell>
        <mxCell id="35LEq4aCd4Z8V4UaqVQG-13" value="" style="endArrow=classic;html=1;rounded=0;entryX=0.5;entryY=0;entryDx=0;entryDy=0;exitX=0.155;exitY=0.929;exitDx=0;exitDy=0;exitPerimeter=0;strokeWidth=5;" parent="1" edge="1">
          <mxGeometry width="50" height="50" relative="1" as="geometry">
            <mxPoint x="717.53" y="187.5" as="sourcePoint" />
            <mxPoint x="717.53" y="221.5" as="targetPoint" />
          </mxGeometry>
        </mxCell>
        <mxCell id="35LEq4aCd4Z8V4UaqVQG-15" value="Normalizer&lt;br&gt;&lt;br&gt;&lt;br&gt;&lt;br&gt;&lt;div&gt;&lt;br&gt;&lt;/div&gt;&lt;div&gt;&lt;br&gt;&lt;/div&gt;&lt;div&gt;&lt;br&gt;&lt;/div&gt;&lt;div&gt;&lt;br&gt;&lt;/div&gt;" style="rounded=0;whiteSpace=wrap;html=1;" parent="1" vertex="1">
          <mxGeometry x="289" y="20" width="165" height="119.86" as="geometry" />
        </mxCell>
        <mxCell id="35LEq4aCd4Z8V4UaqVQG-16" value="DMA" style="rounded=0;whiteSpace=wrap;html=1;" parent="1" vertex="1">
          <mxGeometry x="397.63" y="120.00000000000001" width="50" height="20" as="geometry" />
        </mxCell>
        <mxCell id="35LEq4aCd4Z8V4UaqVQG-46" style="edgeStyle=orthogonalEdgeStyle;rounded=0;orthogonalLoop=1;jettySize=auto;html=1;exitX=0.5;exitY=0;exitDx=0;exitDy=0;entryX=0;entryY=0.25;entryDx=0;entryDy=0;" parent="1" source="35LEq4aCd4Z8V4UaqVQG-17" target="35LEq4aCd4Z8V4UaqVQG-44" edge="1">
          <mxGeometry relative="1" as="geometry">
            <Array as="points">
              <mxPoint x="320" y="120" />
              <mxPoint x="320" y="80" />
            </Array>
          </mxGeometry>
        </mxCell>
        <mxCell id="35LEq4aCd4Z8V4UaqVQG-17" value="DMA" style="rounded=0;whiteSpace=wrap;html=1;" parent="1" vertex="1">
          <mxGeometry x="301" y="119.86000000000001" width="50" height="20" as="geometry" />
        </mxCell>
        <mxCell id="35LEq4aCd4Z8V4UaqVQG-18" value="regs" style="rounded=0;whiteSpace=wrap;html=1;" parent="1" vertex="1">
          <mxGeometry x="347.63" y="119.86000000000001" width="50" height="20" as="geometry" />
        </mxCell>
        <mxCell id="35LEq4aCd4Z8V4UaqVQG-19" value="" style="endArrow=classic;html=1;rounded=0;entryX=0.5;entryY=1;entryDx=0;entryDy=0;shape=flexArrow;exitX=0.155;exitY=0.007;exitDx=0;exitDy=0;exitPerimeter=0;" parent="1" target="35LEq4aCd4Z8V4UaqVQG-17" edge="1">
          <mxGeometry width="50" height="50" relative="1" as="geometry">
            <mxPoint x="326.0999999999999" y="166.75" as="sourcePoint" />
            <mxPoint x="441" y="238.11" as="targetPoint" />
          </mxGeometry>
        </mxCell>
        <mxCell id="35LEq4aCd4Z8V4UaqVQG-20" style="edgeStyle=orthogonalEdgeStyle;rounded=0;orthogonalLoop=1;jettySize=auto;html=1;entryX=0.309;entryY=-0.032;entryDx=0;entryDy=0;entryPerimeter=0;shape=flexArrow;" parent="1" edge="1">
          <mxGeometry relative="1" as="geometry">
            <mxPoint x="422.58" y="140.64000000000001" as="sourcePoint" />
            <mxPoint x="422.35999999999996" y="166.75000000000003" as="targetPoint" />
          </mxGeometry>
        </mxCell>
        <mxCell id="35LEq4aCd4Z8V4UaqVQG-21" value="" style="endArrow=classic;html=1;rounded=0;entryX=0.5;entryY=1;entryDx=0;entryDy=0;strokeWidth=5;exitX=0.693;exitY=-0.052;exitDx=0;exitDy=0;exitPerimeter=0;" parent="1" target="35LEq4aCd4Z8V4UaqVQG-18" edge="1">
          <mxGeometry width="50" height="50" relative="1" as="geometry">
            <mxPoint x="372.34000000000003" y="165.56999999999994" as="sourcePoint" />
            <mxPoint x="447.63" y="169.72000000000003" as="targetPoint" />
            <Array as="points">
              <mxPoint x="372.63" y="149.86" />
            </Array>
          </mxGeometry>
        </mxCell>
        <mxCell id="35LEq4aCd4Z8V4UaqVQG-23" value="Hamming" style="rounded=0;whiteSpace=wrap;html=1;rotation=90;" parent="1" vertex="1">
          <mxGeometry x="135.25" y="60" width="54.75" height="16.5" as="geometry" />
        </mxCell>
        <mxCell id="35LEq4aCd4Z8V4UaqVQG-24" value="FFT" style="rounded=0;whiteSpace=wrap;html=1;rotation=90;" parent="1" vertex="1">
          <mxGeometry x="152.56" y="60" width="54.75" height="16.5" as="geometry" />
        </mxCell>
        <mxCell id="35LEq4aCd4Z8V4UaqVQG-26" value="Modulus" style="rounded=0;whiteSpace=wrap;html=1;rotation=90;" parent="1" vertex="1">
          <mxGeometry x="172.56" y="60" width="54.75" height="16.5" as="geometry" />
        </mxCell>
        <mxCell id="35LEq4aCd4Z8V4UaqVQG-29" value="Mel Scale" style="rounded=0;whiteSpace=wrap;html=1;rotation=90;" parent="1" vertex="1">
          <mxGeometry x="190.81" y="58.25" width="54.75" height="20" as="geometry" />
        </mxCell>
        <mxCell id="35LEq4aCd4Z8V4UaqVQG-39" style="edgeStyle=orthogonalEdgeStyle;rounded=0;orthogonalLoop=1;jettySize=auto;html=1;exitX=0.25;exitY=0;exitDx=0;exitDy=0;entryX=0.599;entryY=-0.01;entryDx=0;entryDy=0;entryPerimeter=0;" parent="1" source="35LEq4aCd4Z8V4UaqVQG-30" target="tonet2kMceCvSD0oCQCj-8" edge="1">
          <mxGeometry relative="1" as="geometry">
            <mxPoint x="260" y="100" as="targetPoint" />
            <Array as="points">
              <mxPoint x="260" y="61" />
              <mxPoint x="260" y="120" />
            </Array>
          </mxGeometry>
        </mxCell>
        <mxCell id="35LEq4aCd4Z8V4UaqVQG-30" value="Package" style="rounded=0;whiteSpace=wrap;html=1;rotation=90;" parent="1" vertex="1">
          <mxGeometry x="207.31" y="70" width="69" height="16.5" as="geometry" />
        </mxCell>
        <mxCell id="35LEq4aCd4Z8V4UaqVQG-34" value="&lt;font style=&quot;font-size: 10px;&quot;&gt;ZCR&lt;/font&gt;" style="rounded=0;whiteSpace=wrap;html=1;" parent="1" vertex="1">
          <mxGeometry x="159.87" y="100" width="67.44" height="10" as="geometry" />
        </mxCell>
        <mxCell id="35LEq4aCd4Z8V4UaqVQG-40" value="Max" style="rounded=0;whiteSpace=wrap;html=1;" parent="1" vertex="1">
          <mxGeometry x="301" y="38.25" width="70" height="21.75" as="geometry" />
        </mxCell>
        <mxCell id="35LEq4aCd4Z8V4UaqVQG-41" style="edgeStyle=orthogonalEdgeStyle;rounded=0;orthogonalLoop=1;jettySize=auto;html=1;exitX=0.25;exitY=0;exitDx=0;exitDy=0;entryX=0.187;entryY=0.954;entryDx=0;entryDy=0;entryPerimeter=0;" parent="1" source="35LEq4aCd4Z8V4UaqVQG-17" target="35LEq4aCd4Z8V4UaqVQG-40" edge="1">
          <mxGeometry relative="1" as="geometry" />
        </mxCell>
        <mxCell id="35LEq4aCd4Z8V4UaqVQG-42" value="Divide" style="rounded=0;whiteSpace=wrap;html=1;" parent="1" vertex="1">
          <mxGeometry x="335" y="95" width="40" height="20" as="geometry" />
        </mxCell>
        <mxCell id="35LEq4aCd4Z8V4UaqVQG-49" style="edgeStyle=orthogonalEdgeStyle;rounded=0;orthogonalLoop=1;jettySize=auto;html=1;exitX=1;exitY=0.5;exitDx=0;exitDy=0;entryX=0.5;entryY=0;entryDx=0;entryDy=0;" parent="1" source="35LEq4aCd4Z8V4UaqVQG-43" target="35LEq4aCd4Z8V4UaqVQG-16" edge="1">
          <mxGeometry relative="1" as="geometry" />
        </mxCell>
        <mxCell id="35LEq4aCd4Z8V4UaqVQG-43" value="Mul" style="rounded=0;whiteSpace=wrap;html=1;" parent="1" vertex="1">
          <mxGeometry x="375" y="95" width="40" height="20" as="geometry" />
        </mxCell>
        <mxCell id="35LEq4aCd4Z8V4UaqVQG-44" value="Divide" style="rounded=0;whiteSpace=wrap;html=1;" parent="1" vertex="1">
          <mxGeometry x="335" y="75" width="40" height="20" as="geometry" />
        </mxCell>
        <mxCell id="35LEq4aCd4Z8V4UaqVQG-50" style="edgeStyle=orthogonalEdgeStyle;rounded=0;orthogonalLoop=1;jettySize=auto;html=1;exitX=1;exitY=0.5;exitDx=0;exitDy=0;entryX=0.75;entryY=0;entryDx=0;entryDy=0;" parent="1" source="35LEq4aCd4Z8V4UaqVQG-45" target="35LEq4aCd4Z8V4UaqVQG-16" edge="1">
          <mxGeometry relative="1" as="geometry" />
        </mxCell>
        <mxCell id="35LEq4aCd4Z8V4UaqVQG-45" value="Mul" style="rounded=0;whiteSpace=wrap;html=1;" parent="1" vertex="1">
          <mxGeometry x="375" y="75" width="40" height="20" as="geometry" />
        </mxCell>
        <mxCell id="35LEq4aCd4Z8V4UaqVQG-47" value="" style="endArrow=classic;html=1;rounded=0;entryX=0;entryY=0.75;entryDx=0;entryDy=0;" parent="1" target="35LEq4aCd4Z8V4UaqVQG-42" edge="1">
          <mxGeometry width="50" height="50" relative="1" as="geometry">
            <mxPoint x="320" y="108.25" as="sourcePoint" />
            <mxPoint x="370" y="58.25" as="targetPoint" />
          </mxGeometry>
        </mxCell>
        <mxCell id="35LEq4aCd4Z8V4UaqVQG-51" value="Core1" style="rounded=0;whiteSpace=wrap;html=1;" parent="1" vertex="1">
          <mxGeometry x="692.69" y="251.38" width="46" height="20" as="geometry" />
        </mxCell>
        <mxCell id="35LEq4aCd4Z8V4UaqVQG-52" value="Core2" style="rounded=0;whiteSpace=wrap;html=1;" parent="1" vertex="1">
          <mxGeometry x="692.69" y="271.38" width="46" height="20" as="geometry" />
        </mxCell>
        <mxCell id="35LEq4aCd4Z8V4UaqVQG-53" value="Core3" style="rounded=0;whiteSpace=wrap;html=1;" parent="1" vertex="1">
          <mxGeometry x="692.69" y="291.38" width="46" height="20" as="geometry" />
        </mxCell>
        <mxCell id="35LEq4aCd4Z8V4UaqVQG-54" value="Core4" style="rounded=0;whiteSpace=wrap;html=1;" parent="1" vertex="1">
          <mxGeometry x="692.69" y="311.38" width="46" height="20" as="geometry" />
        </mxCell>
        <mxCell id="tonet2kMceCvSD0oCQCj-1" value="Nios IIe" style="rounded=0;whiteSpace=wrap;html=1;fillColor=#6d8764;fontColor=#ffffff;strokeColor=#3A5431;" parent="1" vertex="1">
          <mxGeometry x="30" y="135.25" width="90" height="144.75" as="geometry" />
        </mxCell>
        <mxCell id="E3ScxHlMdfL-7eoT-iMu-4" style="edgeStyle=orthogonalEdgeStyle;rounded=0;orthogonalLoop=1;jettySize=auto;html=1;exitX=1;exitY=0.75;exitDx=0;exitDy=0;entryX=-0.1;entryY=0.704;entryDx=0;entryDy=0;entryPerimeter=0;shape=flexArrow;" parent="1" source="tonet2kMceCvSD0oCQCj-10" target="tonet2kMceCvSD0oCQCj-20" edge="1">
          <mxGeometry relative="1" as="geometry" />
        </mxCell>
        <mxCell id="JLmv91pbufhecPj-X8_o-45" value="Data (Avalon Stream)" style="edgeLabel;html=1;align=center;verticalAlign=middle;resizable=0;points=[];" parent="E3ScxHlMdfL-7eoT-iMu-4" vertex="1" connectable="0">
          <mxGeometry x="0.0971" y="11" relative="1" as="geometry">
            <mxPoint x="-5" y="-6" as="offset" />
          </mxGeometry>
        </mxCell>
        <mxCell id="JLmv91pbufhecPj-X8_o-1" value="regs" style="rounded=0;whiteSpace=wrap;html=1;" parent="1" vertex="1">
          <mxGeometry x="150" y="220" width="50" height="20" as="geometry" />
        </mxCell>
        <mxCell id="JLmv91pbufhecPj-X8_o-2" value="DMA" style="rounded=0;whiteSpace=wrap;html=1;" parent="1" vertex="1">
          <mxGeometry x="207.31" y="220" width="42" height="20" as="geometry" />
        </mxCell>
        <mxCell id="JLmv91pbufhecPj-X8_o-4" value="" style="endArrow=classic;html=1;rounded=0;entryX=0.5;entryY=0;entryDx=0;entryDy=0;shape=flexArrow;endWidth=14.285714285714285;endSize=6.266666666666667;" parent="1" edge="1">
          <mxGeometry width="50" height="50" relative="1" as="geometry">
            <mxPoint x="229.13" y="186.75" as="sourcePoint" />
            <mxPoint x="230" y="216.25" as="targetPoint" />
          </mxGeometry>
        </mxCell>
        <mxCell id="JLmv91pbufhecPj-X8_o-5" value="" style="endArrow=classic;html=1;rounded=0;entryX=0.5;entryY=0;entryDx=0;entryDy=0;exitX=0.243;exitY=0.939;exitDx=0;exitDy=0;exitPerimeter=0;strokeWidth=5;" parent="1" edge="1">
          <mxGeometry width="50" height="50" relative="1" as="geometry">
            <mxPoint x="177.00000000000006" y="186.27999999999997" as="sourcePoint" />
            <mxPoint x="177.79000000000002" y="220" as="targetPoint" />
          </mxGeometry>
        </mxCell>
        <mxCell id="JLmv91pbufhecPj-X8_o-9" value="SD &lt;br&gt;Card" style="shape=flexArrow;endArrow=classic;html=1;rounded=0;" parent="1" edge="1">
          <mxGeometry x="-1" y="10" width="50" height="50" relative="1" as="geometry">
            <mxPoint x="255" y="410" as="sourcePoint" />
            <mxPoint x="254.58" y="330" as="targetPoint" />
            <mxPoint x="7" y="10" as="offset" />
          </mxGeometry>
        </mxCell>
        <mxCell id="JLmv91pbufhecPj-X8_o-11" value="SD &lt;br&gt;Card" style="shape=flexArrow;endArrow=classic;html=1;rounded=0;" parent="1" edge="1">
          <mxGeometry x="-1" y="10" width="50" height="50" relative="1" as="geometry">
            <mxPoint x="228.12" y="410" as="sourcePoint" />
            <mxPoint x="227.89000000000004" y="330.63" as="targetPoint" />
            <mxPoint x="7" y="10" as="offset" />
          </mxGeometry>
        </mxCell>
        <mxCell id="JLmv91pbufhecPj-X8_o-12" value="SD &lt;br&gt;Card" style="shape=flexArrow;endArrow=classic;html=1;rounded=0;" parent="1" edge="1">
          <mxGeometry x="-1" y="10" width="50" height="50" relative="1" as="geometry">
            <mxPoint x="200" y="410" as="sourcePoint" />
            <mxPoint x="200.00000000000003" y="330" as="targetPoint" />
            <mxPoint x="7" y="10" as="offset" />
          </mxGeometry>
        </mxCell>
        <mxCell id="JLmv91pbufhecPj-X8_o-13" value="SD &lt;br&gt;Card" style="shape=flexArrow;endArrow=classic;html=1;rounded=0;" parent="1" edge="1">
          <mxGeometry x="-1" y="10" width="50" height="50" relative="1" as="geometry">
            <mxPoint x="172.56" y="410" as="sourcePoint" />
            <mxPoint x="172.56000000000003" y="330" as="targetPoint" />
            <mxPoint x="7" y="10" as="offset" />
          </mxGeometry>
        </mxCell>
        <mxCell id="JLmv91pbufhecPj-X8_o-14" value="" style="endArrow=none;html=1;rounded=0;exitX=0;exitY=1;exitDx=0;exitDy=0;" parent="1" edge="1">
          <mxGeometry width="50" height="50" relative="1" as="geometry">
            <mxPoint x="140.00000000000006" y="330" as="sourcePoint" />
            <mxPoint x="140.07" y="400" as="targetPoint" />
          </mxGeometry>
        </mxCell>
        <mxCell id="JLmv91pbufhecPj-X8_o-16" value="SPI" style="rounded=0;whiteSpace=wrap;html=1;" parent="1" vertex="1">
          <mxGeometry x="150" y="310" width="30" height="20.63" as="geometry" />
        </mxCell>
        <mxCell id="JLmv91pbufhecPj-X8_o-17" value="SPI" style="rounded=0;whiteSpace=wrap;html=1;" parent="1" vertex="1">
          <mxGeometry x="180" y="309.37" width="30" height="20.63" as="geometry" />
        </mxCell>
        <mxCell id="JLmv91pbufhecPj-X8_o-19" value="SPI" style="rounded=0;whiteSpace=wrap;html=1;" parent="1" vertex="1">
          <mxGeometry x="214.93" y="309.37" width="30" height="20.63" as="geometry" />
        </mxCell>
        <mxCell id="JLmv91pbufhecPj-X8_o-20" value="SPI" style="rounded=0;whiteSpace=wrap;html=1;" parent="1" vertex="1">
          <mxGeometry x="245.56" y="309.37" width="30" height="20.63" as="geometry" />
        </mxCell>
        <mxCell id="JLmv91pbufhecPj-X8_o-23" value="" style="endArrow=none;html=1;rounded=0;entryX=0.25;entryY=0;entryDx=0;entryDy=0;" parent="1" target="tonet2kMceCvSD0oCQCj-5" edge="1">
          <mxGeometry width="50" height="50" relative="1" as="geometry">
            <mxPoint x="50" y="50" as="sourcePoint" />
            <mxPoint x="580" y="460" as="targetPoint" />
            <Array as="points">
              <mxPoint x="50" y="10" />
              <mxPoint x="490" y="10" />
            </Array>
          </mxGeometry>
        </mxCell>
        <mxCell id="JLmv91pbufhecPj-X8_o-15" value="I2C" style="rounded=0;whiteSpace=wrap;html=1;" parent="1" vertex="1">
          <mxGeometry x="479" y="35" width="80" height="40" as="geometry" />
        </mxCell>
        <mxCell id="JLmv91pbufhecPj-X8_o-24" value="filter" style="rounded=0;whiteSpace=wrap;html=1;" parent="1" vertex="1">
          <mxGeometry x="489" y="76.5" width="60" height="20" as="geometry" />
        </mxCell>
        <mxCell id="JLmv91pbufhecPj-X8_o-25" value="PWM Audio" style="rounded=0;whiteSpace=wrap;html=1;" parent="1" vertex="1">
          <mxGeometry x="606.13" y="60" width="110" height="79.86" as="geometry" />
        </mxCell>
        <mxCell id="JLmv91pbufhecPj-X8_o-26" value="regs" style="rounded=0;whiteSpace=wrap;html=1;" parent="1" vertex="1">
          <mxGeometry x="660.13" y="119.86" width="50" height="20" as="geometry" />
        </mxCell>
        <mxCell id="JLmv91pbufhecPj-X8_o-28" value="" style="endArrow=classic;html=1;rounded=0;entryX=0.5;entryY=1;entryDx=0;entryDy=0;exitX=0.46;exitY=-0.019;exitDx=0;exitDy=0;exitPerimeter=0;strokeWidth=5;" parent="1" edge="1">
          <mxGeometry width="50" height="50" relative="1" as="geometry">
            <mxPoint x="690" y="165.86" as="sourcePoint" />
            <mxPoint x="690" y="139.86" as="targetPoint" />
          </mxGeometry>
        </mxCell>
        <mxCell id="JLmv91pbufhecPj-X8_o-29" value="DMA" style="rounded=0;whiteSpace=wrap;html=1;" parent="1" vertex="1">
          <mxGeometry x="614.13" y="120" width="42" height="20" as="geometry" />
        </mxCell>
        <mxCell id="JLmv91pbufhecPj-X8_o-30" value="" style="endArrow=classic;html=1;rounded=0;entryX=0.5;entryY=1;entryDx=0;entryDy=0;shape=flexArrow;exitX=0.155;exitY=0.007;exitDx=0;exitDy=0;exitPerimeter=0;" parent="1" edge="1">
          <mxGeometry width="50" height="50" relative="1" as="geometry">
            <mxPoint x="638.9399999999998" y="166.61" as="sourcePoint" />
            <mxPoint x="638.8399999999999" y="139.86" as="targetPoint" />
          </mxGeometry>
        </mxCell>
        <mxCell id="JLmv91pbufhecPj-X8_o-31" value="filter" style="rounded=0;whiteSpace=wrap;html=1;" parent="1" vertex="1">
          <mxGeometry x="631.13" y="66.5" width="60" height="20" as="geometry" />
        </mxCell>
        <mxCell id="JLmv91pbufhecPj-X8_o-32" value="PWM 16x" style="rounded=0;whiteSpace=wrap;html=1;" parent="1" vertex="1">
          <mxGeometry x="645.26" y="26.36" width="64.87" height="40.14" as="geometry" />
        </mxCell>
        <mxCell id="JLmv91pbufhecPj-X8_o-34" value="" style="endArrow=none;html=1;rounded=0;entryX=0.212;entryY=0.002;entryDx=0;entryDy=0;entryPerimeter=0;" parent="1" target="JLmv91pbufhecPj-X8_o-25" edge="1">
          <mxGeometry width="50" height="50" relative="1" as="geometry">
            <mxPoint x="490" y="10" as="sourcePoint" />
            <mxPoint x="550" y="160" as="targetPoint" />
            <Array as="points">
              <mxPoint x="630" y="10" />
            </Array>
          </mxGeometry>
        </mxCell>
        <mxCell id="JLmv91pbufhecPj-X8_o-35" value="" style="shape=flexArrow;endArrow=classic;html=1;rounded=0;" parent="1" edge="1">
          <mxGeometry width="50" height="50" relative="1" as="geometry">
            <mxPoint x="520" as="sourcePoint" />
            <mxPoint x="520" y="40" as="targetPoint" />
          </mxGeometry>
        </mxCell>
        <mxCell id="JLmv91pbufhecPj-X8_o-36" value="" style="shape=flexArrow;endArrow=classic;html=1;rounded=0;exitX=0.5;exitY=0;exitDx=0;exitDy=0;" parent="1" source="JLmv91pbufhecPj-X8_o-32" edge="1">
          <mxGeometry width="50" height="50" relative="1" as="geometry">
            <mxPoint x="500" y="240" as="sourcePoint" />
            <mxPoint x="680" as="targetPoint" />
          </mxGeometry>
        </mxCell>
        <mxCell id="JLmv91pbufhecPj-X8_o-37" value="UART" style="rounded=0;whiteSpace=wrap;html=1;" parent="1" vertex="1">
          <mxGeometry x="740" y="60.14" width="70" height="79.86" as="geometry" />
        </mxCell>
        <mxCell id="JLmv91pbufhecPj-X8_o-39" value="regs" style="rounded=0;whiteSpace=wrap;html=1;" parent="1" vertex="1">
          <mxGeometry x="750" y="120.00000000000001" width="50" height="20" as="geometry" />
        </mxCell>
        <mxCell id="JLmv91pbufhecPj-X8_o-41" value="tx" style="rounded=0;whiteSpace=wrap;html=1;" parent="1" vertex="1">
          <mxGeometry x="740" y="46.5" width="30" height="20" as="geometry" />
        </mxCell>
        <mxCell id="JLmv91pbufhecPj-X8_o-42" value="rx" style="rounded=0;whiteSpace=wrap;html=1;" parent="1" vertex="1">
          <mxGeometry x="780" y="46.5" width="30" height="20" as="geometry" />
        </mxCell>
        <mxCell id="JLmv91pbufhecPj-X8_o-43" value="" style="endArrow=classic;html=1;rounded=0;exitX=0.5;exitY=0;exitDx=0;exitDy=0;" parent="1" source="JLmv91pbufhecPj-X8_o-41" edge="1">
          <mxGeometry width="50" height="50" relative="1" as="geometry">
            <mxPoint x="680" y="140" as="sourcePoint" />
            <mxPoint x="755" y="10" as="targetPoint" />
          </mxGeometry>
        </mxCell>
        <mxCell id="JLmv91pbufhecPj-X8_o-44" value="" style="endArrow=classic;html=1;rounded=0;" parent="1" edge="1">
          <mxGeometry width="50" height="50" relative="1" as="geometry">
            <mxPoint x="795" y="10" as="sourcePoint" />
            <mxPoint x="794.58" y="46.5" as="targetPoint" />
          </mxGeometry>
        </mxCell>
        <mxCell id="JLmv91pbufhecPj-X8_o-46" style="edgeStyle=orthogonalEdgeStyle;rounded=0;orthogonalLoop=1;jettySize=auto;html=1;exitX=0;exitY=0.75;exitDx=0;exitDy=0;entryX=1.006;entryY=0.916;entryDx=0;entryDy=0;entryPerimeter=0;shape=flexArrow;" parent="1" source="tonet2kMceCvSD0oCQCj-4" target="tonet2kMceCvSD0oCQCj-2" edge="1">
          <mxGeometry relative="1" as="geometry">
            <mxPoint x="299.12958000000003" y="319.75" as="targetPoint" />
          </mxGeometry>
        </mxCell>
        <mxCell id="JLmv91pbufhecPj-X8_o-47" value="Command (Avalon Stream)" style="edgeLabel;html=1;align=center;verticalAlign=middle;resizable=0;points=[];" parent="JLmv91pbufhecPj-X8_o-46" vertex="1" connectable="0">
          <mxGeometry x="-0.1729" y="-6" relative="1" as="geometry">
            <mxPoint x="-14" y="17" as="offset" />
          </mxGeometry>
        </mxCell>
        <mxCell id="I2ueV06glB9LTOTNb2np-1" value="Distancer" style="rounded=0;whiteSpace=wrap;html=1;" vertex="1" parent="1">
          <mxGeometry x="840" y="60" width="70" height="79.86" as="geometry" />
        </mxCell>
        <mxCell id="I2ueV06glB9LTOTNb2np-5" value="" style="endArrow=none;html=1;rounded=0;entryX=0.5;entryY=0;entryDx=0;entryDy=0;" edge="1" parent="1" target="JLmv91pbufhecPj-X8_o-37">
          <mxGeometry width="50" height="50" relative="1" as="geometry">
            <mxPoint x="630" y="10" as="sourcePoint" />
            <mxPoint x="780" y="10" as="targetPoint" />
            <Array as="points">
              <mxPoint x="775" y="10" />
            </Array>
          </mxGeometry>
        </mxCell>
        <mxCell id="I2ueV06glB9LTOTNb2np-6" value="regs" style="rounded=0;whiteSpace=wrap;html=1;" vertex="1" parent="1">
          <mxGeometry x="850" y="119.86" width="50" height="20" as="geometry" />
        </mxCell>
        <mxCell id="I2ueV06glB9LTOTNb2np-7" value="GPIO" style="rounded=0;whiteSpace=wrap;html=1;" vertex="1" parent="1">
          <mxGeometry x="850" y="38.25" width="54.87" height="40.14" as="geometry" />
        </mxCell>
        <mxCell id="I2ueV06glB9LTOTNb2np-8" value="BasicTimer" style="rounded=0;whiteSpace=wrap;html=1;" vertex="1" parent="1">
          <mxGeometry x="770" y="215.57" width="70" height="79.86" as="geometry" />
        </mxCell>
        <mxCell id="I2ueV06glB9LTOTNb2np-9" value="" style="endArrow=classic;html=1;rounded=0;entryX=0.5;entryY=1;entryDx=0;entryDy=0;exitX=0.46;exitY=-0.019;exitDx=0;exitDy=0;exitPerimeter=0;strokeWidth=5;" edge="1" parent="1">
          <mxGeometry width="50" height="50" relative="1" as="geometry">
            <mxPoint x="774.84" y="165.86" as="sourcePoint" />
            <mxPoint x="774.84" y="139.86" as="targetPoint" />
          </mxGeometry>
        </mxCell>
        <mxCell id="I2ueV06glB9LTOTNb2np-10" value="" style="endArrow=classic;html=1;rounded=0;entryX=0.5;entryY=1;entryDx=0;entryDy=0;exitX=0.46;exitY=-0.019;exitDx=0;exitDy=0;exitPerimeter=0;strokeWidth=5;" edge="1" parent="1">
          <mxGeometry width="50" height="50" relative="1" as="geometry">
            <mxPoint x="874.6" y="165.86" as="sourcePoint" />
            <mxPoint x="874.6" y="139.86" as="targetPoint" />
          </mxGeometry>
        </mxCell>
        <mxCell id="I2ueV06glB9LTOTNb2np-11" value="regs" style="rounded=0;whiteSpace=wrap;html=1;" vertex="1" parent="1">
          <mxGeometry x="780" y="215.75" width="50" height="20" as="geometry" />
        </mxCell>
        <mxCell id="I2ueV06glB9LTOTNb2np-12" value="" style="endArrow=classic;html=1;rounded=0;entryX=0.5;entryY=0;entryDx=0;entryDy=0;exitX=0.155;exitY=0.929;exitDx=0;exitDy=0;exitPerimeter=0;strokeWidth=5;" edge="1" parent="1" target="I2ueV06glB9LTOTNb2np-11">
          <mxGeometry width="50" height="50" relative="1" as="geometry">
            <mxPoint x="804.8399999999999" y="186.75" as="sourcePoint" />
            <mxPoint x="804.8399999999999" y="220.75" as="targetPoint" />
          </mxGeometry>
        </mxCell>
        <mxCell id="I2ueV06glB9LTOTNb2np-13" value="" style="endArrow=none;html=1;rounded=0;entryX=0.168;entryY=1.002;entryDx=0;entryDy=0;entryPerimeter=0;" edge="1" parent="1" target="I2ueV06glB9LTOTNb2np-8">
          <mxGeometry width="50" height="50" relative="1" as="geometry">
            <mxPoint x="700" y="400" as="sourcePoint" />
            <mxPoint x="720" y="300" as="targetPoint" />
            <Array as="points">
              <mxPoint x="780" y="400" />
            </Array>
          </mxGeometry>
        </mxCell>
        <mxCell id="I2ueV06glB9LTOTNb2np-14" value="2x" style="shape=flexArrow;endArrow=classic;html=1;rounded=0;entryX=0.173;entryY=-0.021;entryDx=0;entryDy=0;entryPerimeter=0;endWidth=24.8;endSize=5.756;" edge="1" parent="1" target="I2ueV06glB9LTOTNb2np-7">
          <mxGeometry width="50" height="50" relative="1" as="geometry">
            <mxPoint x="860" as="sourcePoint" />
            <mxPoint x="770" y="90" as="targetPoint" />
          </mxGeometry>
        </mxCell>
        <mxCell id="I2ueV06glB9LTOTNb2np-15" value="4x" style="shape=flexArrow;endArrow=classic;html=1;rounded=0;endWidth=24.8;endSize=5.756;exitX=0.75;exitY=0;exitDx=0;exitDy=0;" edge="1" parent="1">
          <mxGeometry width="50" height="50" relative="1" as="geometry">
            <mxPoint x="901.1524999999999" y="38.25" as="sourcePoint" />
            <mxPoint x="900" as="targetPoint" />
          </mxGeometry>
        </mxCell>
        <mxCell id="I2ueV06glB9LTOTNb2np-23" value="PLL" style="rounded=0;whiteSpace=wrap;html=1;" vertex="1" parent="1">
          <mxGeometry x="860" y="215.21" width="70" height="84.79" as="geometry" />
        </mxCell>
      </root>
    </mxGraphModel>
  </diagram>
</mxfile>
